# Blender 4.1.0
# www.blender.org
mtllib HealItem.mtl
o 立方体
v 0.250000 -0.250000 -0.250000
v 0.250000 0.250000 -0.250000
v 0.250000 -0.250000 0.250000
v 0.250000 0.250000 0.250000
v -0.250000 -0.250000 -0.250000
v -0.250000 0.250000 -0.250000
v -0.250000 -0.250000 0.250000
v -0.250000 0.250000 0.250000
v 0.250000 0.750000 -0.250000
v 0.250000 0.750000 0.250000
v -0.250000 0.750000 0.250000
v -0.250000 0.750000 -0.250000
v -0.750000 0.250000 0.250000
v -0.750000 -0.250000 0.250000
v -0.750000 -0.250000 -0.250000
v -0.750000 0.250000 -0.250000
v 0.750000 -0.250000 0.250000
v 0.750000 -0.250000 -0.250000
v 0.750000 0.250000 -0.250000
v 0.750000 0.250000 0.250000
v 0.250000 -0.750000 0.250000
v 0.250000 -0.750000 -0.250000
v -0.250000 -0.750000 0.250000
v -0.250000 -0.750000 -0.250000
vn -0.0000 -0.0000 1.0000
vn -0.0000 -0.0000 -1.0000
vn -1.0000 -0.0000 -0.0000
vn -0.0000 1.0000 -0.0000
vn 1.0000 -0.0000 -0.0000
vn -0.0000 -1.0000 -0.0000
vt 0.375000 0.250000
vt 0.625000 0.250000
vt 0.375000 0.500000
vt 0.375000 0.750000
vt 0.625000 0.750000
vt 0.375000 1.000000
vt 0.625000 0.500000
vt 0.875000 0.500000
vt 0.625000 0.000000
vt 0.625000 1.000000
vt 0.375000 0.000000
vt 0.125000 0.750000
vt 0.125000 0.500000
vt 0.875000 0.750000
s 0
usemtl マテリアル
f 3/1/1 20/2/1 4/2/1
f 4/2/1 7/3/1 3/1/1
f 5/4/2 16/5/2 6/5/2
f 6/5/2 1/6/2 5/4/2
f 5/4/3 23/3/3 7/3/3
f 4/2/1 11/7/1 8/7/1
f 10/8/4 12/5/4 11/7/4
f 8/7/3 12/5/3 6/5/3
f 2/9/5 10/2/5 4/2/5
f 6/5/2 9/10/2 2/10/2
f 13/7/3 15/4/3 14/3/3
f 7/3/6 15/4/6 5/4/6
f 6/5/4 13/7/4 8/7/4
f 8/7/1 14/3/1 7/3/1
f 19/9/5 17/1/5 18/11/5
f 2/10/2 18/6/2 1/6/2
f 4/2/4 19/9/4 2/9/4
f 1/12/6 17/13/6 3/13/6
f 23/3/6 22/12/6 21/13/6
f 1/6/2 24/4/2 5/4/2
f 7/3/1 21/1/1 3/1/1
f 3/13/5 22/12/5 1/12/5
f 3/1/1 17/1/1 20/2/1
f 4/2/1 8/7/1 7/3/1
f 5/4/2 15/4/2 16/5/2
f 6/5/2 2/10/2 1/6/2
f 5/4/3 24/4/3 23/3/3
f 4/2/1 10/2/1 11/7/1
f 10/8/4 9/14/4 12/5/4
f 8/7/3 11/7/3 12/5/3
f 2/9/5 9/9/5 10/2/5
f 6/5/2 12/5/2 9/10/2
f 13/7/3 16/5/3 15/4/3
f 7/3/6 14/3/6 15/4/6
f 6/5/4 16/5/4 13/7/4
f 8/7/1 13/7/1 14/3/1
f 19/9/5 20/2/5 17/1/5
f 2/10/2 19/10/2 18/6/2
f 4/2/4 20/2/4 19/9/4
f 1/12/6 18/12/6 17/13/6
f 23/3/6 24/4/6 22/12/6
f 1/6/2 22/6/2 24/4/2
f 7/3/1 23/3/1 21/1/1
f 3/13/5 21/13/5 22/12/5
