# Blender 4.1.0
# www.blender.org
mtllib Bullet.mtl
o ICO球
v 0.814021 -0.000000 0.052243
v 0.447220 0.525725 -1.007128
v 0.369031 0.850649 0.273873
v 0.306396 -0.000000 1.014949
v 0.369031 -0.850649 0.273873
v 0.447220 -0.525725 -1.007128
v -0.447220 0.850649 -0.559909
v -0.300080 0.525725 1.330027
v -0.300080 -0.525725 1.330027
v -0.447220 -0.850649 -0.559909
v -0.447216 0.000000 -1.177947
v -0.795987 0.000000 0.052243
v 0.693797 0.499995 0.182513
v 0.850654 0.309011 -0.708843
v 0.525738 0.809012 -0.262869
v 0.525736 -0.000000 -1.134169
v 0.850654 -0.309011 -0.708843
v 0.693795 -0.000000 0.473814
v 0.359637 0.499997 1.294609
v 0.693797 -0.499995 0.182513
v 0.359637 -0.499997 1.294609
v 0.525738 -0.809012 -0.262869
v -0.000000 0.309013 -1.234579
v -0.000000 -0.309013 -1.234579
v 0.009017 1.000000 0.052243
v 0.000000 0.809017 -0.871306
v 0.003160 0.309013 1.061316
v 0.009017 0.809017 0.523576
v 0.009017 -0.809017 0.523576
v 0.003160 -0.309013 1.061316
v -0.000000 -0.809017 -0.871306
v 0.009017 -1.000000 0.052243
v -0.525736 0.499997 -0.971710
v -0.414204 0.809012 0.263032
v -0.353318 0.000000 0.971170
v -0.414204 -0.809012 0.263032
v -0.525736 -0.499997 -0.971710
v -0.850654 0.499995 -0.162456
v -0.850652 0.000000 -0.809251
v -0.675763 0.309011 0.393300
v -0.675763 -0.309011 0.393300
v -0.850654 -0.499995 -0.162456
vn 0.9714 0.2002 0.1280
vn 0.6617 0.2680 -0.7002
vn 0.9496 0.1578 0.2708
vn 0.9496 -0.1578 0.2708
vn 0.9714 -0.2002 0.1280
vn 0.3304 0.2680 -0.9050
vn 0.3648 0.9304 0.0343
vn -0.3167 -0.4371 0.8418
vn 0.1159 -0.9390 0.3237
vn 0.4182 -0.8334 -0.3613
vn 0.1256 0.5831 -0.8026
vn 0.1515 0.9161 0.3712
vn 0.1512 -0.0000 0.9885
vn 0.1515 -0.9161 0.3712
vn 0.1256 -0.5831 -0.8026
vn -0.7797 0.5422 -0.3131
vn -0.8391 0.4967 0.2216
vn -0.8969 0.1837 0.4022
vn -0.6177 -0.7837 0.0644
vn -0.6617 -0.1947 -0.7240
vn -0.9947 0.0816 0.0631
vn -0.8360 -0.4342 -0.3356
vn -0.7797 -0.5422 -0.3131
vn -0.9506 -0.0288 0.3090
vn -0.7588 -0.5043 0.4121
vn -0.8391 -0.4967 0.2216
vn -0.9431 -0.0000 0.3325
vn -0.8733 -0.0000 0.4873
vn -0.8969 -0.1837 0.4022
vn -0.9506 0.0288 0.3090
vn -0.7588 0.5043 0.4121
vn -0.6177 0.7837 0.0644
vn -0.9947 -0.0816 0.0631
vn -0.8360 0.4342 -0.3356
vn -0.6617 0.1947 -0.7240
vn -0.3304 -0.3151 -0.8897
vn -0.1876 -0.5773 -0.7947
vn -0.3304 -0.7488 -0.5746
vn -0.3847 -0.9210 0.0620
vn -0.2253 -0.9030 0.3659
vn -0.1660 -0.9486 0.2696
vn 0.2886 0.5596 0.7769
vn -0.2452 -0.0000 0.9695
vn 0.2886 -0.5596 0.7769
vn -0.1660 0.9486 0.2696
vn -0.2253 0.9030 0.3659
vn -0.3847 0.9210 0.0620
vn -0.3304 0.7488 -0.5746
vn -0.1876 0.5773 -0.7947
vn -0.3304 0.3151 -0.8897
vn -0.0495 -0.9782 -0.2018
vn 0.2306 -0.9524 -0.1992
vn 0.3648 -0.9304 0.0343
vn 0.7483 -0.4817 0.4560
vn -0.6419 -0.5650 0.5184
vn -0.3167 0.4371 0.8418
vn 0.7483 0.4817 0.4560
vn -0.6419 0.5650 0.5184
vn 0.1159 0.9390 0.3237
vn -0.0495 0.9782 -0.2018
vn 0.2306 0.9524 -0.1992
vn 0.4182 0.8334 -0.3613
vn -0.1256 -0.0000 -0.9921
vn 0.1876 -0.0000 -0.9822
vn 0.3304 -0.2680 -0.9050
vn 0.6257 -0.7048 -0.3343
vn 0.8533 -0.5199 0.0388
vn 0.7447 -0.6461 0.1673
vn 0.7435 -0.6304 0.2234
vn 0.9445 -0.1653 0.2838
vn 0.7518 0.3811 0.5382
vn 0.7518 -0.3811 0.5382
vn 0.9445 0.1653 0.2838
vn 0.7435 0.6304 0.2234
vn 0.6617 -0.2680 -0.7002
vn 0.7947 -0.0000 -0.6071
vn 0.9988 -0.0000 0.0481
vn 0.7447 0.6461 0.1673
vn 0.8533 0.5199 0.0388
vn 0.6257 0.7048 -0.3343
vt 0.181819 0.000000
vt 0.227273 0.078731
vt 0.136365 0.078731
vt 0.272728 0.157461
vt 0.318182 0.078731
vt 0.363637 0.157461
vt 0.909091 0.000000
vt 0.954545 0.078731
vt 0.863636 0.078731
vt 0.727273 0.000000
vt 0.772727 0.078731
vt 0.681818 0.078731
vt 0.545455 0.000000
vt 0.590909 0.078731
vt 0.500000 0.078731
vt 0.318182 0.236191
vt 0.090910 0.157461
vt 0.181819 0.157461
vt 0.136365 0.236191
vt 0.818182 0.157461
vt 0.909091 0.157461
vt 0.863636 0.236191
vt 0.636364 0.157461
vt 0.727273 0.157461
vt 0.681818 0.236191
vt 0.454546 0.157461
vt 0.545455 0.157461
vt 0.500000 0.236191
vt 0.227273 0.236191
vt 0.045455 0.236191
vt 0.772727 0.236191
vt 0.590909 0.236191
vt 0.409092 0.236191
vt 0.181819 0.314921
vt 0.272728 0.314921
vt 0.227273 0.393651
vt 0.000000 0.314921
vt 0.090910 0.314921
vt 0.045455 0.393651
vt 0.727273 0.314921
vt 0.818182 0.314921
vt 0.772727 0.393651
vt 0.545455 0.314921
vt 0.636364 0.314921
vt 0.590909 0.393651
vt 0.363637 0.314921
vt 0.454546 0.314921
vt 0.409092 0.393651
vt 0.500000 0.393651
vt 0.454546 0.472382
vt 0.681818 0.393651
vt 0.636364 0.472382
vt 0.863636 0.393651
vt 0.818182 0.472382
vt 0.909091 0.314921
vt 0.136365 0.393651
vt 0.090910 0.472382
vt 0.318182 0.393651
vt 0.272728 0.472382
vt 0.954545 0.236191
vt 1.000000 0.157461
vt 0.409092 0.078731
vt 0.363637 0.000000
s 0
usemtl マテリアル
f 1/1/1 14/2/1 13/3/1
f 2/4/2 14/5/2 16/6/2
f 1/7/3 13/8/3 18/9/3
f 1/10/4 18/11/4 20/12/4
f 1/13/5 20/14/5 17/15/5
f 2/4/6 16/6/6 23/16/6
f 3/17/7 15/18/7 25/19/7
f 4/20/8 19/21/8 27/22/8
f 5/23/9 21/24/9 29/25/9
f 6/26/10 22/27/10 31/28/10
f 2/4/11 23/16/11 26/29/11
f 3/17/12 25/19/12 28/30/12
f 4/20/13 27/22/13 30/31/13
f 5/23/14 29/25/14 32/32/14
f 6/26/15 31/28/15 24/33/15
f 7/34/16 33/35/16 38/36/16
f 8/37/17 34/38/17 40/39/17
f 9/40/18 35/41/18 41/42/18
f 10/43/19 36/44/19 42/45/19
f 11/46/20 37/47/20 39/48/20
f 39/48/21 42/49/21 12/50/21
f 39/48/22 37/47/22 42/49/22
f 37/47/23 10/43/23 42/49/23
f 42/45/24 41/51/24 12/52/24
f 42/45/25 36/44/25 41/51/25
f 36/44/26 9/40/26 41/51/26
f 41/42/27 40/53/27 12/54/27
f 41/42/28 35/41/28 40/53/28
f 35/41/29 8/55/29 40/53/29
f 40/39/30 38/56/30 12/57/30
f 40/39/31 34/38/31 38/56/31
f 34/38/32 7/34/32 38/56/32
f 38/36/33 39/58/33 12/59/33
f 38/36/34 33/35/34 39/58/34
f 33/35/35 11/46/35 39/58/35
f 24/33/36 37/47/36 11/46/36
f 24/33/37 31/28/37 37/47/37
f 31/28/38 10/43/38 37/47/38
f 32/32/39 36/44/39 10/43/39
f 32/32/40 29/25/40 36/44/40
f 29/25/41 9/40/41 36/44/41
f 30/31/42 35/41/42 9/40/42
f 30/31/43 27/22/43 35/41/43
f 27/22/44 8/55/44 35/41/44
f 28/30/45 34/38/45 8/37/45
f 28/30/46 25/19/46 34/38/46
f 25/19/47 7/34/47 34/38/47
f 26/29/48 33/35/48 7/34/48
f 26/29/49 23/16/49 33/35/49
f 23/16/50 11/46/50 33/35/50
f 31/28/51 32/32/51 10/43/51
f 31/28/52 22/27/52 32/32/52
f 22/27/53 5/23/53 32/32/53
f 29/25/54 30/31/54 9/40/54
f 29/25/55 21/24/55 30/31/55
f 21/24/56 4/20/56 30/31/56
f 27/22/57 28/60/57 8/55/57
f 27/22/58 19/21/58 28/60/58
f 19/21/59 3/61/59 28/60/59
f 25/19/60 26/29/60 7/34/60
f 25/19/61 15/18/61 26/29/61
f 15/18/62 2/4/62 26/29/62
f 23/16/63 24/33/63 11/46/63
f 23/16/64 16/6/64 24/33/64
f 16/6/65 6/26/65 24/33/65
f 17/15/66 22/27/66 6/26/66
f 17/15/67 20/14/67 22/27/67
f 20/14/68 5/23/68 22/27/68
f 20/12/69 21/24/69 5/23/69
f 20/12/70 18/11/70 21/24/70
f 18/11/71 4/20/71 21/24/71
f 18/9/72 19/21/72 4/20/72
f 18/9/73 13/8/73 19/21/73
f 13/8/74 3/61/74 19/21/74
f 16/6/75 17/62/75 6/26/75
f 16/6/76 14/5/76 17/62/76
f 14/5/77 1/63/77 17/62/77
f 13/3/78 15/18/78 3/17/78
f 13/3/79 14/2/79 15/18/79
f 14/2/80 2/4/80 15/18/80
