# Blender 4.1.0
# www.blender.org
mtllib PlayerDemoBullet.mtl
o 球
v 0.000000 -0.606218 -0.500000
v -0.576547 -0.187332 0.500000
v -0.576547 -0.187332 -0.500000
v -0.356326 0.490440 0.500000
v -0.356326 0.490440 -0.500000
v 0.000000 -0.000000 1.000000
v 0.356326 0.490440 0.500000
v 0.356326 0.490440 -0.500000
v 0.576547 -0.187332 0.500000
v 0.576547 -0.187332 -0.500000
v -0.000000 -0.606218 0.500000
v 0.000000 0.000000 -1.000000
vn -0.4196 -0.5776 -0.7002
vn -0.5878 -0.8090 -0.0000
vn -0.4196 -0.5776 0.7002
vn -0.6790 0.2206 -0.7002
vn -0.9511 0.3090 -0.0000
vn -0.6790 0.2206 0.7002
vn -0.0000 0.7139 -0.7002
vn -0.0000 1.0000 -0.0000
vn -0.0000 0.7139 0.7002
vn 0.6790 0.2206 -0.7002
vn 0.9511 0.3090 -0.0000
vn 0.6790 0.2206 0.7002
vn 0.4196 -0.5776 -0.7002
vn 0.5878 -0.8090 -0.0000
vn 0.4196 -0.5776 0.7002
vt 0.500000 0.000000
vt 0.600000 0.333333
vt 0.400000 0.333333
vt 0.600000 0.666667
vt 0.500000 1.000000
vt 0.400000 0.666667
vt 0.300000 0.000000
vt 0.200000 0.333333
vt 0.300000 1.000000
vt 0.200000 0.666667
vt 0.100000 0.000000
vt 0.000000 0.333333
vt 0.100000 1.000000
vt 0.000000 0.666667
vt 0.900000 0.000000
vt 1.000000 0.333333
vt 0.800000 0.333333
vt 0.800000 0.666667
vt 1.000000 0.666667
vt 0.900000 1.000000
vt 0.700000 0.000000
vt 0.700000 1.000000
s 0
usemtl マテリアル
f 12/1/1 1/2/1 3/3/1
f 11/4/2 3/3/2 1/2/2
f 11/4/3 6/5/3 2/6/3
f 12/7/4 3/3/4 5/8/4
f 2/6/5 5/8/5 3/3/5
f 2/6/6 6/9/6 4/10/6
f 12/11/7 5/8/7 8/12/7
f 4/10/8 8/12/8 5/8/8
f 4/10/9 6/13/9 7/14/9
f 12/15/10 8/16/10 10/17/10
f 8/16/11 9/18/11 10/17/11
f 7/19/12 6/20/12 9/18/12
f 12/21/13 10/17/13 1/2/13
f 9/18/14 1/2/14 10/17/14
f 9/18/15 6/22/15 11/4/15
f 11/4/2 2/6/2 3/3/2
f 2/6/5 4/10/5 5/8/5
f 4/10/8 7/14/8 8/12/8
f 8/16/11 7/19/11 9/18/11
f 9/18/14 11/4/14 1/2/14
