# Blender 4.1.1
# www.blender.org
mtllib Core.mtl
o 立方体
v 0.500000 -0.500000 0.500000
v 0.500000 0.500000 0.500000
v -0.500000 -0.500000 0.500000
v -0.500000 0.500000 0.500000
v 0.500000 -0.500000 -0.500000
v 0.500000 0.500000 -0.500000
v -0.500000 -0.500000 -0.500000
v -0.500000 0.500000 -0.500000
v -0.000000 -0.500000 0.500000
v -0.000000 0.500000 0.500000
v 0.000000 -0.500000 -0.500000
v 0.000000 0.500000 -0.500000
v 0.500000 0.000000 0.500000
v -0.500000 0.000000 0.500000
v -0.500000 0.000000 -0.500000
v 0.500000 0.000000 -0.500000
v 0.000000 0.000000 -0.500000
v -0.000000 0.000000 1.304035
v -0.500000 -0.500000 -0.000000
v -0.500000 0.500000 -0.000000
v 0.500000 -0.500000 0.000000
v 0.500000 0.500000 0.000000
v 0.000000 0.500000 0.000000
v 0.000000 -0.500000 0.000000
v 0.999123 0.000000 0.000000
v -0.500000 0.500000 -0.250000
v 0.500000 -0.500000 -0.250000
v 0.000000 0.500000 -0.250000
v -0.500000 0.000000 -0.250000
v -0.500000 -0.500000 -0.250000
v 0.500000 0.500000 -0.250000
v 0.000000 -0.500000 -0.250000
v 0.500000 0.000000 -0.250000
v -0.500000 -0.500000 0.250000
v 0.500000 0.500000 0.250000
v -0.000000 -0.500000 0.250000
v 0.500000 0.000000 0.250000
v -0.500000 0.500000 0.250000
v 0.500000 -0.500000 0.250000
v -0.000000 0.435210 0.250000
v -0.500000 0.000000 0.250000
v 0.500000 0.250000 0.500000
v -0.500000 0.250000 0.500000
v -0.500000 0.250000 -0.500000
v 0.500000 0.250000 -0.500000
v 0.000000 0.250000 -0.500000
v -0.000000 0.250000 0.902018
v 0.500000 0.250000 0.000000
v -0.500000 0.250000 -0.000000
v 0.500000 0.250000 -0.250000
v -0.500000 0.250000 -0.250000
v -0.500000 0.250000 0.250000
v 0.500000 0.250000 0.250000
v -0.500000 -0.250000 0.500000
v -0.500000 -0.250000 -0.500000
v 0.500000 -0.250000 -0.500000
v 0.000000 -0.250000 -0.500000
v -0.000000 -0.250000 0.902018
v 0.500000 -0.250000 0.500000
v -0.500000 -0.250000 -0.000000
v 0.500000 -0.250000 0.000000
v 0.500000 -0.250000 -0.250000
v -0.500000 -0.250000 -0.250000
v -0.500000 -0.250000 0.250000
v 0.500000 -0.250000 0.250000
v -1.001123 0.000000 -0.000000
v -1.001123 0.000000 -0.250000
v -1.001123 0.000000 0.250000
v -1.001123 0.250000 -0.000000
v -1.001123 0.250000 -0.250000
v -1.001123 0.250000 0.250000
v -1.001123 -0.250000 -0.000000
v -1.001123 -0.250000 -0.250000
v -1.001123 -0.250000 0.250000
v 0.999123 0.000000 -0.250000
v 0.999123 0.000000 0.250000
v 0.999123 0.250000 0.000000
v 0.999123 0.250000 -0.250000
v 0.999123 0.250000 0.250000
v 0.999123 -0.250000 0.000000
v 0.999123 -0.250000 -0.250000
v 0.999123 -0.250000 0.250000
vn -0.3908 0.7817 0.4861
vn -1.0000 -0.0000 -0.0000
vn -0.0000 -0.0000 -1.0000
vn 1.0000 -0.0000 -0.0000
vn -0.0000 -1.0000 -0.0000
vn -0.1245 0.9605 -0.2489
vn 0.1245 0.9605 -0.2489
vn 0.3908 0.7817 0.4861
vn 0.6266 -0.0000 0.7793
vn -0.6266 -0.0000 0.7793
vn -0.0000 -0.0000 1.0000
vn -0.0000 1.0000 -0.0000
vn 0.6473 0.6473 0.4025
vn -0.6473 0.6473 0.4025
vn 0.6473 -0.6473 0.4025
vn -0.6473 -0.6473 0.4025
vn 0.1245 0.9605 0.2489
vn -0.1245 0.9605 0.2489
vn -0.3908 -0.7817 0.4861
vn 0.3908 -0.7817 0.4861
vt 0.290220 0.143405
vt 0.204114 0.304921
vt 0.145110 0.098439
vt 0.415936 0.404486
vt 0.395826 0.461822
vt 0.347898 0.422597
vt 0.167426 0.602546
vt 0.334852 0.686259
vt 0.167426 0.686259
vt 0.952072 0.203493
vt 0.931962 0.260829
vt 0.884034 0.221604
vt 0.518068 0.301666
vt 0.584064 0.197487
vt 0.565996 0.340892
vt 0.356216 0.039225
vt 0.320515 0.187324
vt 0.320080 0.326035
vt 0.500000 0.445071
vt 0.547928 0.484297
vt 0.000000 0.602546
vt 0.000000 0.686259
vt 0.240249 0.018111
vt 0.863924 0.278940
vt 0.854890 0.503533
vt 0.795886 0.297051
vt 0.000000 0.769972
vt 0.167426 0.853685
vt 0.000000 0.853685
vt 0.815996 0.239715
vt 0.747958 0.257826
vt 0.167426 0.769972
vt 0.334852 0.853685
vt 0.279860 0.440708
vt 0.259751 0.498044
vt 0.211822 0.458819
vt 0.009034 0.134661
vt 0.136076 0.323032
vt 0.068038 0.341143
vt 0.984460 0.668399
vt 0.932004 0.780336
vt 0.932004 0.635472
vt 0.505611 0.772697
vt 0.334852 0.707457
vt 0.479138 0.707457
vt 0.595856 0.523522
vt 0.661852 0.419342
vt 0.643785 0.562747
vt 0.368008 0.365261
vt 0.434004 0.261081
vt 0.386076 0.221855
vt 0.452072 0.117676
vt 0.613924 0.380117
vt 0.679920 0.275937
vt 0.856216 0.125042
vt 0.836106 0.182379
vt 0.788178 0.143154
vt 0.299970 0.383372
vt 0.252042 0.344146
vt 0.808288 0.085817
vt 0.740250 0.103928
vt 0.500000 0.156901
vt 0.481932 0.300306
vt 0.463864 0.443711
vt 0.672212 0.122039
vt 0.652102 0.179376
vt 0.604174 0.140150
vt 0.184004 0.362257
vt 0.097858 0.524096
vt 0.115966 0.380368
vt 0.631992 0.236712
vt 0.272152 0.286810
vt 0.727848 0.315162
vt 0.709781 0.458567
vt 0.691713 0.601972
vt 0.712416 0.686259
vt 0.879549 0.769972
vt 0.712416 0.769972
vt 0.404144 0.078450
vt 0.904144 0.164268
vt 0.367779 0.655001
vt 0.512064 0.655001
vt 0.281862 0.527099
vt 0.720140 0.161265
vt 0.165896 0.505984
vt 0.700030 0.218601
vt 0.765994 0.114673
vt 0.990966 0.467311
vt 1.000000 0.548499
vt 0.334852 0.769972
vt 0.327788 0.479933
vt -0.000000 0.053473
vt 0.047928 0.398479
vt -0.000000 0.359254
vt 0.163894 0.419594
vt 0.143784 0.476930
vt 0.095856 0.437705
vt 0.536136 0.158261
vt 0.759751 0.583861
vt 0.191713 0.516155
vt 0.334852 0.937398
vt 0.167426 0.937398
vt -0.000000 0.937398
vt 0.145786 0.563321
vt 0.213824 0.545210
vt 0.193714 0.602546
vt 0.261752 0.584435
vt 0.233933 0.487873
vt 0.712416 0.602546
vt 0.628703 0.770348
vt 0.628703 0.602546
vt 0.879549 0.747409
vt 0.879549 0.602546
vt 0.544990 0.770348
vt 0.544990 0.602546
vt 0.738176 0.018111
vt 0.718066 0.075447
vt 0.670138 0.036222
vt 0.786104 0.057336
vt 0.854142 0.039225
vt 0.834032 0.096562
vt 0.806214 -0.000000
vt 0.400705 0.602546
vt 0.544990 0.602546
vt 0.532085 0.837938
vt 0.361326 0.772697
vt 0.712416 0.602546
vt 0.879549 0.686259
vt 0.334852 0.602546
vt 1.000000 0.242718
vt 0.308287 0.000000
vt 0.984460 0.813262
vt 0.329790 0.566324
vt 0.712416 0.770348
vt 0.902070 0.078450
vt 0.387800 0.837938
vt 0.879549 0.602546
s 0
usemtl マテリアル
f 10/1/1 43/2/1 47/3/1
f 26/4/2 44/5/2 51/6/2
f 12/7/3 45/8/3 46/9/3
f 35/10/4 42/11/4 53/12/4
f 11/13/5 27/14/5 32/15/5
f 10/1/6 35/16/6 40/17/6
f 38/18/7 10/1/7 40/17/7
f 7/19/5 32/15/5 30/20/5
f 8/21/3 46/9/3 44/22/3
f 42/23/8 10/1/8 47/3/8
f 13/24/9 58/25/9 59/26/9
f 15/27/3 57/28/3 55/29/3
f 37/30/4 59/26/4 65/31/4
f 17/32/3 56/33/3 57/28/3
f 29/34/2 55/35/2 63/36/2
f 58/37/10 14/38/10 54/39/10
f 64/40/5 72/41/5 60/42/5
f 37/43/11 79/44/11 53/45/11
f 19/46/5 36/47/5 34/48/5
f 20/49/12 28/50/12 26/4/12
f 23/51/12 31/52/12 28/50/12
f 24/53/5 39/54/5 36/47/5
f 31/55/4 48/56/4 50/57/4
f 38/18/2 49/58/2 52/59/2
f 6/60/4 50/57/4 45/61/4
f 28/50/12 6/62/12 12/63/12
f 26/4/12 12/63/12 8/64/12
f 16/65/4 62/66/4 56/67/4
f 41/68/11 74/69/11 64/70/11
f 30/20/5 24/53/5 19/46/5
f 32/15/5 21/71/5 24/53/5
f 20/49/2 51/6/2 49/58/2
f 4/72/2 52/59/2 43/2/2
f 36/47/5 1/73/5 9/74/5
f 34/48/5 9/74/5 3/75/5
f 14/38/2 64/70/2 54/39/2
f 33/76/3 81/77/3 62/78/3
f 38/18/12 23/51/12 20/49/12
f 23/51/12 35/16/12 22/79/12
f 22/80/4 53/12/4 48/56/4
f 53/45/12 77/81/12 48/82/12
f 43/2/2 41/68/2 14/38/2
f 51/6/12 69/83/12 49/58/12
f 45/61/4 33/84/4 16/65/4
f 52/59/11 68/85/11 41/68/11
f 61/86/5 82/87/5 65/31/5
f 13/24/13 47/88/13 18/89/13
f 44/22/3 17/32/3 15/27/3
f 53/12/4 13/24/4 37/30/4
f 46/9/3 16/90/3 17/32/3
f 51/6/2 15/91/2 29/34/2
f 47/3/14 14/38/14 18/92/14
f 61/86/4 39/54/4 21/71/4
f 54/39/2 34/93/2 3/94/2
f 60/95/2 30/96/2 19/97/2
f 56/67/4 27/14/4 5/98/4
f 62/66/4 21/71/4 27/14/4
f 64/70/2 19/97/2 34/93/2
f 9/74/11 54/99/11 3/75/11
f 63/36/2 7/100/2 30/96/2
f 57/28/3 5/101/3 11/102/3
f 65/31/4 1/73/4 39/54/4
f 55/29/3 11/102/3 7/103/3
f 59/26/11 9/74/11 1/73/11
f 68/85/2 72/104/2 74/69/2
f 66/105/2 73/106/2 72/104/2
f 69/83/2 67/107/2 66/105/2
f 71/108/2 66/105/2 68/85/2
f 63/109/3 67/110/3 29/111/3
f 60/42/5 73/112/5 63/113/5
f 29/111/3 70/114/3 51/115/3
f 49/58/12 71/108/12 52/59/12
f 75/116/4 80/117/4 81/118/4
f 25/119/4 82/87/4 80/117/4
f 77/120/4 76/121/4 25/119/4
f 78/122/4 25/119/4 75/116/4
f 48/82/12 78/123/12 50/124/12
f 65/125/11 76/126/11 37/43/11
f 50/127/3 75/128/3 33/76/3
f 62/66/5 80/117/5 61/86/5
f 10/1/11 4/72/11 43/2/11
f 26/4/2 8/64/2 44/5/2
f 12/7/3 6/129/3 45/8/3
f 35/10/4 2/130/4 42/11/4
f 11/13/5 5/98/5 27/14/5
f 10/1/12 2/131/12 35/16/12
f 38/18/12 4/72/12 10/1/12
f 7/19/5 11/13/5 32/15/5
f 8/21/3 12/7/3 46/9/3
f 42/23/11 2/131/11 10/1/11
f 13/24/15 18/89/15 58/25/15
f 15/27/3 17/32/3 57/28/3
f 37/30/4 13/24/4 59/26/4
f 17/32/3 16/90/3 56/33/3
f 29/34/2 15/91/2 55/35/2
f 58/37/16 18/92/16 14/38/16
f 64/40/5 74/132/5 72/41/5
f 37/43/11 76/126/11 79/44/11
f 19/46/5 24/53/5 36/47/5
f 20/49/12 23/51/12 28/50/12
f 23/51/12 22/79/12 31/52/12
f 24/53/5 21/71/5 39/54/5
f 31/55/4 22/80/4 48/56/4
f 38/18/2 20/49/2 49/58/2
f 6/60/4 31/55/4 50/57/4
f 28/50/12 31/52/12 6/62/12
f 26/4/12 28/50/12 12/63/12
f 16/65/4 33/84/4 62/66/4
f 41/68/11 68/85/11 74/69/11
f 30/20/5 32/15/5 24/53/5
f 32/15/5 27/14/5 21/71/5
f 20/49/2 26/4/2 51/6/2
f 4/72/2 38/18/2 52/59/2
f 36/47/5 39/54/5 1/73/5
f 34/48/5 36/47/5 9/74/5
f 14/38/2 41/68/2 64/70/2
f 33/76/3 75/128/3 81/77/3
f 38/18/17 40/17/17 23/51/17
f 23/51/18 40/17/18 35/16/18
f 22/80/4 35/10/4 53/12/4
f 53/45/12 79/44/12 77/81/12
f 43/2/2 52/59/2 41/68/2
f 51/6/12 70/133/12 69/83/12
f 45/61/4 50/57/4 33/84/4
f 52/59/11 71/108/11 68/85/11
f 61/86/5 80/117/5 82/87/5
f 13/24/9 42/11/9 47/88/9
f 44/22/3 46/9/3 17/32/3
f 53/12/4 42/11/4 13/24/4
f 46/9/3 45/8/3 16/90/3
f 51/6/2 44/5/2 15/91/2
f 47/3/10 43/2/10 14/38/10
f 61/86/4 65/31/4 39/54/4
f 54/39/2 64/70/2 34/93/2
f 60/95/2 63/36/2 30/96/2
f 56/67/4 62/66/4 27/14/4
f 62/66/4 61/86/4 21/71/4
f 64/70/2 60/95/2 19/97/2
f 9/74/19 58/25/19 54/99/19
f 63/36/2 55/35/2 7/100/2
f 57/28/3 56/33/3 5/101/3
f 65/31/4 59/26/4 1/73/4
f 55/29/3 57/28/3 11/102/3
f 59/26/20 58/25/20 9/74/20
f 68/85/2 66/105/2 72/104/2
f 66/105/2 67/107/2 73/106/2
f 69/83/2 70/133/2 67/107/2
f 71/108/2 69/83/2 66/105/2
f 63/109/3 73/134/3 67/110/3
f 60/42/5 72/41/5 73/112/5
f 29/111/3 67/110/3 70/114/3
f 49/58/12 69/83/12 71/108/12
f 75/116/4 25/119/4 80/117/4
f 25/119/4 76/121/4 82/87/4
f 77/120/4 79/135/4 76/121/4
f 78/122/4 77/120/4 25/119/4
f 48/82/12 77/81/12 78/123/12
f 65/125/11 82/136/11 76/126/11
f 50/127/3 78/137/3 75/128/3
f 62/66/5 81/118/5 80/117/5
