# Blender 4.1.1
# www.blender.org
mtllib A.mtl
o テキスト
v -0.236226 0.150000 -0.000000
v -0.145226 0.150000 0.201000
v 0.144774 0.150000 0.201000
v 0.230774 0.150000 -0.000000
v 0.330774 0.150000 -0.000000
v 0.037774 0.150000 0.686000
v -0.031226 0.150000 0.686000
v -0.336226 0.150000 -0.000000
v -0.105226 0.150000 0.289000
v 0.004774 0.150000 0.536000
v 0.106774 0.150000 0.289000
v -0.236226 -0.150000 0.000000
v -0.145226 -0.150000 0.201000
v 0.144774 -0.150000 0.201000
v 0.230774 -0.150000 0.000000
v 0.330774 -0.150000 0.000000
v 0.037774 -0.150000 0.686000
v -0.031226 -0.150000 0.686000
v -0.336226 -0.150000 0.000000
v -0.105226 -0.150000 0.289000
v 0.004774 -0.150000 0.536000
v 0.106774 -0.150000 0.289000
v -0.236226 -0.150000 0.000000
v -0.236226 0.150000 -0.000000
v -0.145226 -0.150000 0.201000
v -0.145226 0.150000 0.201000
v 0.144774 -0.150000 0.201000
v 0.144774 0.150000 0.201000
v 0.230774 -0.150000 0.000000
v 0.230774 0.150000 -0.000000
v 0.330774 -0.150000 0.000000
v 0.330774 0.150000 -0.000000
v 0.037774 -0.150000 0.686000
v 0.037774 0.150000 0.686000
v -0.031226 -0.150000 0.686000
v -0.031226 0.150000 0.686000
v -0.336226 -0.150000 0.000000
v -0.336226 0.150000 -0.000000
v -0.105226 -0.150000 0.289000
v -0.105226 0.150000 0.289000
v 0.004774 -0.150000 0.536000
v 0.004774 0.150000 0.536000
v 0.106774 -0.150000 0.289000
v 0.106774 0.150000 0.289000
vn -0.0000 1.0000 -0.0000
vn -0.0000 -1.0000 -0.0000
vn 0.5420 -0.0000 -0.8404
vn -0.5507 -0.0000 -0.8347
vn 0.8345 -0.0000 -0.5510
vn -0.5508 -0.0000 -0.8347
vn 0.5510 -0.0000 0.8345
vn -0.5449 -0.0000 0.8385
vn -0.8385 -0.0000 -0.5449
vn -0.5448 -0.0000 0.8385
vn -0.8386 -0.0000 -0.5448
vn -0.0136 -0.0000 -0.9999
vn 0.8387 -0.0000 0.5446
vn -0.8312 -0.0000 0.5560
vn -0.0137 -0.0000 -0.9999
vt 0.400000 0.000000
vt 0.600000 0.000000
vt 0.500000 0.000000
vt 0.900000 0.000000
vt 0.700000 0.000000
vt 1.000000 0.000000
vt 0.800000 0.000000
vt 0.200000 0.000000
vt 0.100000 0.000000
vt 0.300000 0.000000
vt 0.000000 0.000000
vt 0.125000 1.000000
vt 0.000000 1.000000
vt 0.250000 1.000000
vt 0.125000 0.000000
vt 0.375000 1.000000
vt 0.250000 0.000000
vt 0.500000 1.000000
vt 0.375000 0.000000
vt 0.625000 1.000000
vt 0.750000 1.000000
vt 0.625000 0.000000
vt 0.875000 1.000000
vt 0.750000 0.000000
vt 1.000000 1.000000
vt 0.875000 0.000000
vt 0.333333 1.000000
vt 0.666667 1.000000
vt 0.333333 0.000000
vt 0.666667 0.000000
s 0
usemtl マテリアル.001
f 5/1/1 7/2/1 6/3/1
f 5/1/1 10/4/1 7/2/1
f 10/4/1 8/5/1 7/2/1
f 5/1/1 11/6/1 10/4/1
f 9/7/1 8/5/1 10/4/1
f 5/1/1 3/8/1 11/6/1
f 3/8/1 9/7/1 11/6/1
f 3/8/1 2/9/1 9/7/1
f 2/9/1 8/5/1 9/7/1
f 5/1/1 4/10/1 3/8/1
f 1/11/1 8/5/1 2/9/1
f 16/1/2 17/3/2 18/2/2
f 16/1/2 18/2/2 21/4/2
f 21/4/2 18/2/2 19/5/2
f 16/1/2 21/4/2 22/6/2
f 20/7/2 21/4/2 19/5/2
f 16/1/2 22/6/2 14/8/2
f 14/8/2 22/6/2 20/7/2
f 14/8/2 20/7/2 13/9/2
f 13/9/2 20/7/2 19/5/2
f 16/1/2 14/8/2 15/10/2
f 12/11/2 13/9/2 19/5/2
s 1
f 26/12/3 23/11/3 24/13/3
f 28/14/4 25/15/3 26/12/3
f 30/16/4 27/17/4 28/14/4
f 32/18/5 29/19/6 30/16/4
f 34/20/7 31/3/5 32/18/5
f 36/21/8 33/22/7 34/20/7
f 38/23/9 35/24/10 36/21/8
f 24/25/3 37/26/11 38/23/9
f 42/27/12 39/11/13 40/13/13
f 44/28/14 41/29/15 42/27/12
f 40/25/13 43/30/14 44/28/14
f 26/12/3 25/15/3 23/11/3
f 28/14/4 27/17/4 25/15/3
f 30/16/4 29/19/6 27/17/4
f 32/18/5 31/3/5 29/19/6
f 34/20/7 33/22/7 31/3/5
f 36/21/8 35/24/10 33/22/7
f 38/23/9 37/26/11 35/24/10
f 24/25/3 23/6/3 37/26/11
f 42/27/12 41/29/15 39/11/13
f 44/28/14 43/30/14 41/29/15
f 40/25/13 39/6/13 43/30/14
