# Blender 4.1.1
# www.blender.org
mtllib signboard.mtl
o 立方体
v 1.415406 0.069921 -0.299438
v 1.415406 0.089275 -0.280084
v 1.434760 0.069921 -0.280084
v 1.415406 0.089275 0.280084
v 1.415406 0.069921 0.299438
v 1.434760 0.069921 0.280084
v 1.415406 -0.069921 -0.299438
v 1.434760 -0.069921 -0.280084
v 1.415406 -0.089275 -0.280084
v 1.415406 -0.069921 0.299438
v 1.415406 -0.089275 0.280084
v 1.434760 -0.069921 0.280084
v -1.415406 0.069921 -0.299438
v -1.434760 0.069921 -0.280084
v -1.415406 0.089275 -0.280084
v -1.415406 0.069921 0.299438
v -1.415406 0.089275 0.280084
v -1.434760 0.069921 0.280084
v -1.415406 -0.069921 -0.299438
v -1.415406 -0.089275 -0.280084
v -1.434760 -0.069921 -0.280084
v -1.415406 -0.069921 0.299438
v -1.434760 -0.069921 0.280084
v -1.415406 -0.089275 0.280084
v 1.415406 0.069921 0.308595
v 1.415406 0.089275 0.327950
v 1.434760 0.069921 0.327950
v 1.415406 0.089275 0.888117
v 1.415406 0.069921 0.907472
v 1.434760 0.069921 0.888117
v 1.415406 -0.069921 0.308595
v 1.434760 -0.069921 0.327950
v 1.415406 -0.089275 0.327950
v 1.415406 -0.069921 0.907472
v 1.415406 -0.089275 0.888117
v 1.434760 -0.069921 0.888117
v -1.415406 0.069921 0.308595
v -1.434760 0.069921 0.327950
v -1.415406 0.089275 0.327950
v -1.415406 0.069921 0.907472
v -1.415406 0.089275 0.888117
v -1.434760 0.069921 0.888117
v -1.415406 -0.069921 0.308595
v -1.415406 -0.089275 0.327950
v -1.434760 -0.069921 0.327950
v -1.415406 -0.069921 0.907472
v -1.434760 -0.069921 0.888117
v -1.415406 -0.089275 0.888117
v 1.415406 0.069921 0.922107
v 1.415406 0.089275 0.941461
v 1.434760 0.069921 0.941461
v 1.415406 0.089275 1.501629
v 1.415406 0.069921 1.520983
v 1.434760 0.069921 1.501629
v 1.415406 -0.069921 0.922107
v 1.434760 -0.069921 0.941461
v 1.415406 -0.089275 0.941461
v 1.415406 -0.069921 1.520983
v 1.415406 -0.089275 1.501629
v 1.434760 -0.069921 1.501629
v -1.415406 0.069921 0.922107
v -1.434760 0.069921 0.941461
v -1.415406 0.089275 0.941461
v -1.415406 0.069921 1.520983
v -1.415406 0.089275 1.501629
v -1.434760 0.069921 1.501629
v -1.415406 -0.069921 0.922107
v -1.415406 -0.089275 0.941461
v -1.434760 -0.069921 0.941461
v -1.415406 -0.069921 1.520983
v -1.434760 -0.069921 1.501629
v -1.415406 -0.089275 1.501629
vn -0.0000 1.0000 -0.0000
vn -1.0000 -0.0000 -0.0000
vn -0.0000 -0.0000 -1.0000
vn -0.0000 -0.0000 1.0000
vn 1.0000 -0.0000 -0.0000
vn -0.0000 -1.0000 -0.0000
vn 0.5774 0.5774 -0.5773
vn 0.5774 0.5774 0.5773
vn 0.5774 -0.5774 -0.5773
vn 0.5774 -0.5774 0.5773
vn -0.5774 0.5774 -0.5773
vn -0.5774 0.5774 0.5773
vn -0.5774 -0.5774 -0.5773
vn -0.5774 -0.5774 0.5773
vn 0.5773 0.5774 -0.5774
vn 0.5773 -0.5774 -0.5774
vn -0.5773 0.5774 -0.5774
vn -0.5773 -0.5774 -0.5774
vn 0.7071 -0.0000 -0.7071
vn 0.7071 0.7071 -0.0000
vn 0.7071 -0.0000 0.7071
vn 0.7071 -0.7071 -0.0000
vn -0.0000 -0.7071 -0.7071
vn -0.0000 -0.7071 0.7071
vn -0.7071 -0.7071 -0.0000
vn -0.7071 -0.0000 -0.7071
vn -0.7071 -0.0000 0.7071
vn -0.7071 0.7071 -0.0000
vn -0.0000 0.7071 -0.7071
vn -0.0000 0.7071 0.7071
vt 0.897289 0.498832
vt 0.069454 0.389821
vt 0.897289 0.389822
vt 0.541065 0.263852
vt 0.618147 0.222957
vt 0.618147 0.263852
vt 0.897289 0.085654
vt 0.069454 0.112868
vt 0.069454 0.085654
vt 0.453329 0.222957
vt 0.063794 0.263851
vt 0.063794 0.222957
vt 0.458656 0.263852
vt 0.535738 0.222957
vt 0.535738 0.263852
vt 0.897289 0.382289
vt 0.069454 0.273278
vt 0.897289 0.273278
vt 0.897289 0.731919
vt 0.069454 0.622909
vt 0.897289 0.622909
vt 0.541065 0.211637
vt 0.618147 0.170742
vt 0.618147 0.211637
vt 0.897289 0.058441
vt 0.069454 0.058440
vt 0.453329 0.170742
vt 0.063794 0.211637
vt 0.063794 0.170742
vt 0.458656 0.211637
vt 0.535738 0.170742
vt 0.535738 0.211637
vt 0.897289 0.615376
vt 0.069454 0.506365
vt 0.897289 0.506365
vt 0.897289 0.965007
vt 0.069454 0.855996
vt 0.897289 0.855996
vt 0.541065 0.159422
vt 0.618147 0.118528
vt 0.618147 0.159422
vt 0.453329 0.118528
vt 0.063794 0.159422
vt 0.063794 0.118528
vt 0.458656 0.159422
vt 0.535738 0.118528
vt 0.535738 0.159422
vt 0.897289 0.848463
vt 0.069454 0.739452
vt 0.897289 0.739452
vt 0.069454 0.386055
vt 0.063794 0.389821
vt 0.455993 0.269511
vt 0.453329 0.263852
vt 0.897289 0.269511
vt 0.902949 0.273278
vt 0.455993 0.217297
vt 0.458656 0.222957
vt 0.897289 0.386055
vt 0.902949 0.389822
vt 0.538402 0.217297
vt 0.541065 0.222957
vt 0.069454 0.269511
vt 0.063794 0.273278
vt 0.538402 0.269511
vt 0.069454 0.619142
vt 0.063794 0.622909
vt 0.455993 0.217297
vt 0.453329 0.211637
vt 0.897289 0.502599
vt 0.902949 0.506365
vt 0.455993 0.165082
vt 0.458656 0.170742
vt 0.897289 0.619142
vt 0.902949 0.622909
vt 0.538402 0.165082
vt 0.541065 0.170742
vt 0.069454 0.502598
vt 0.063794 0.506365
vt 0.538402 0.217297
vt 0.069454 0.852229
vt 0.063794 0.855996
vt 0.453329 0.159422
vt 0.897289 0.735686
vt 0.902949 0.739452
vt 0.455993 0.112868
vt 0.458656 0.118528
vt 0.897289 0.852230
vt 0.902949 0.855996
vt 0.538402 0.112868
vt 0.541065 0.118528
vt 0.069454 0.735686
vt 0.063794 0.739452
vt 0.063794 0.031227
vt 0.069454 0.031227
vt 0.069454 0.498832
vt 0.902949 0.382289
vt 0.069454 0.386055
vt 0.897289 0.386055
vt 0.069454 0.382288
vt 0.063794 0.382288
vt 0.897289 0.031227
vt 0.902949 0.058440
vt 0.897289 0.058440
vt 0.902949 0.498832
vt 0.897289 0.502599
vt 0.063794 0.085654
vt 0.069454 0.731919
vt 0.902949 0.615376
vt 0.897289 0.619142
vt 0.069454 0.615376
vt 0.063794 0.615376
vt 0.902949 0.112868
vt 0.897289 0.112868
vt 0.902949 0.731919
vt 0.069454 0.735686
vt 0.897289 0.735686
vt 0.063794 0.058440
vt 0.069454 0.965007
vt 0.902949 0.848463
vt 0.069454 0.852229
vt 0.897289 0.852229
vt 0.069454 0.848463
vt 0.063794 0.848463
vt 0.902949 0.085654
vt 0.897289 0.085654
vt 0.902949 0.965007
vt 0.069454 0.968773
vt 0.897289 0.968773
vt 0.063794 0.498832
vt 0.902949 0.031227
vt 0.063794 0.112868
vt 0.063794 0.731919
vt 0.902949 0.085654
vt 0.063794 0.965007
vt 0.902949 0.058441
s 0
usemtl Material
f 17/1/1 2/2/1 15/3/1
f 23/4/2 14/5/2 21/6/2
f 43/7/3 25/8/3 31/9/3
f 10/10/4 16/11/4 22/12/4
f 6/13/5 8/14/5 3/15/5
f 11/16/6 20/17/6 9/18/6
f 41/19/1 26/20/1 39/21/1
f 47/22/2 38/23/2 45/24/2
f 67/25/3 49/9/3 55/26/3
f 34/27/4 40/28/4 46/29/4
f 30/30/5 32/31/5 27/32/5
f 35/33/6 44/34/6 33/35/6
f 65/36/1 50/37/1 63/38/1
f 71/39/2 62/40/2 69/41/2
f 58/42/4 64/43/4 70/44/4
f 54/45/5 56/46/5 51/47/5
f 59/48/6 68/49/6 57/50/6
f 1/51/7 2/2/7 3/52/7
f 4/53/8 5/54/8 6/13/8
f 7/55/9 8/56/9 9/18/9
f 10/10/10 11/57/10 12/58/10
f 13/59/11 14/60/11 15/3/11
f 16/14/12 17/61/12 18/62/12
f 19/63/13 20/17/13 21/64/13
f 22/15/14 23/4/14 24/65/14
f 25/66/7 26/20/7 27/67/7
f 28/68/8 29/69/8 30/30/8
f 31/70/9 32/71/9 33/35/9
f 34/27/10 35/72/10 36/73/10
f 37/74/11 38/75/11 39/21/11
f 40/31/12 41/76/12 42/77/12
f 43/78/13 44/34/13 45/79/13
f 46/32/14 47/22/14 48/80/14
f 49/81/15 50/37/15 51/82/15
f 52/72/8 53/83/8 54/45/8
f 55/84/16 56/85/16 57/50/16
f 58/42/10 59/86/10 60/87/10
f 61/88/17 62/89/17 63/38/17
f 64/46/12 65/90/12 66/91/12
f 67/92/18 68/49/18 69/93/18
f 70/47/14 71/39/14 72/76/14
f 1/26/19 8/94/19 7/95/19
f 4/96/20 3/52/20 2/2/20
f 10/10/21 6/13/21 5/54/21
f 9/18/22 12/97/22 11/16/22
f 7/55/23 20/17/23 19/63/23
f 22/98/24 11/16/24 10/99/24
f 21/64/25 24/100/25 23/101/25
f 19/102/26 14/103/26 13/104/26
f 16/14/27 23/4/27 22/15/27
f 15/3/28 18/105/28 17/1/28
f 13/59/29 2/2/29 1/51/29
f 5/78/30 17/1/30 16/106/30
f 25/8/19 32/107/19 31/9/19
f 28/108/20 27/67/20 26/20/20
f 34/27/21 30/30/21 29/69/21
f 33/35/22 36/109/22 35/33/22
f 31/70/23 44/34/23 43/78/23
f 46/66/24 35/33/24 34/110/24
f 45/79/25 48/111/25 47/112/25
f 43/7/26 38/113/26 37/114/26
f 40/31/27 47/22/27 46/32/27
f 39/21/28 42/115/28 41/19/28
f 37/74/29 26/20/29 25/66/29
f 29/116/30 41/19/30 40/117/30
f 49/9/19 56/118/19 55/26/19
f 52/119/20 51/82/20 50/37/20
f 58/42/21 54/45/21 53/83/21
f 57/50/22 60/120/22 59/48/22
f 55/84/23 68/49/23 67/92/23
f 70/121/24 59/48/24 58/122/24
f 69/93/25 72/123/25 71/124/25
f 67/25/26 62/125/26 61/126/26
f 64/46/27 71/39/27 70/47/27
f 63/38/28 66/127/28 65/36/28
f 61/88/29 50/37/29 49/81/29
f 53/128/30 65/36/30 64/129/30
f 19/102/3 1/26/3 7/95/3
f 17/1/1 4/96/1 2/2/1
f 23/4/2 18/62/2 14/5/2
f 43/7/3 37/114/3 25/8/3
f 10/10/4 5/54/4 16/11/4
f 6/13/5 12/58/5 8/14/5
f 11/16/6 24/100/6 20/17/6
f 41/19/1 28/108/1 26/20/1
f 47/22/2 42/77/2 38/23/2
f 67/25/3 61/126/3 49/9/3
f 34/27/4 29/69/4 40/28/4
f 30/30/5 36/73/5 32/31/5
f 35/33/6 48/111/6 44/34/6
f 65/36/1 52/119/1 50/37/1
f 71/39/2 66/91/2 62/40/2
f 58/42/4 53/83/4 64/43/4
f 54/45/5 60/87/5 56/46/5
f 59/48/6 72/123/6 68/49/6
f 1/26/19 3/118/19 8/94/19
f 4/96/20 6/130/20 3/52/20
f 10/10/21 12/58/21 6/13/21
f 9/18/22 8/56/22 12/97/22
f 7/55/23 9/18/23 20/17/23
f 22/98/24 24/100/24 11/16/24
f 21/64/25 20/17/25 24/100/25
f 19/102/26 21/131/26 14/103/26
f 16/14/27 18/62/27 23/4/27
f 15/3/28 14/60/28 18/105/28
f 13/59/29 15/3/29 2/2/29
f 5/78/30 4/96/30 17/1/30
f 25/8/19 27/132/19 32/107/19
f 28/108/20 30/133/20 27/67/20
f 34/27/21 36/73/21 30/30/21
f 33/35/22 32/71/22 36/109/22
f 31/70/23 33/35/23 44/34/23
f 46/66/24 48/111/24 35/33/24
f 45/79/25 44/34/25 48/111/25
f 43/7/26 45/134/26 38/113/26
f 40/31/27 42/77/27 47/22/27
f 39/21/28 38/75/28 42/115/28
f 37/74/29 39/21/29 26/20/29
f 29/116/30 28/108/30 41/19/30
f 49/9/19 51/107/19 56/118/19
f 52/119/20 54/135/20 51/82/20
f 58/42/21 60/87/21 54/45/21
f 57/50/22 56/85/22 60/120/22
f 55/84/23 57/50/23 68/49/23
f 70/121/24 72/123/24 59/48/24
f 69/93/25 68/49/25 72/123/25
f 67/25/26 69/136/26 62/125/26
f 64/46/27 66/91/27 71/39/27
f 63/38/28 62/89/28 66/127/28
f 61/88/29 63/38/29 50/37/29
f 53/128/30 52/119/30 65/36/30
f 19/102/3 13/104/3 1/26/3
